<svg width="247" height="155" viewBox="0 0 247 155" fill="none" xmlns="http://www.w3.org/2000/svg">
<g clip-path="url(#clip0_22_2)">
<path d="M74.7727 54.1818L50.8182 124H25.3636L1.45455 54.1818H24.8636L37.7273 102.273H38.4545L51.3636 54.1818H74.7727ZM133.614 58.8182C133.311 55.4848 131.962 52.8939 129.568 51.0455C127.205 49.1667 123.826 48.2273 119.432 48.2273C116.523 48.2273 114.098 48.6061 112.159 49.3636C110.22 50.1212 108.765 51.1667 107.795 52.5C106.826 53.803 106.326 55.303 106.295 57C106.235 58.3939 106.508 59.6212 107.114 60.6818C107.75 61.7424 108.659 62.6818 109.841 63.5C111.053 64.2879 112.508 64.9848 114.205 65.5909C115.902 66.197 117.811 66.7273 119.932 67.1818L127.932 69C132.538 70 136.598 71.3333 140.114 73C143.659 74.6667 146.629 76.6515 149.023 78.9545C151.447 81.2576 153.28 83.9091 154.523 86.9091C155.765 89.9091 156.402 93.2727 156.432 97C156.402 102.879 154.917 107.924 151.977 112.136C149.038 116.348 144.811 119.576 139.295 121.818C133.811 124.061 127.189 125.182 119.432 125.182C111.644 125.182 104.856 124.015 99.0682 121.682C93.2803 119.348 88.7803 115.803 85.5682 111.045C82.3561 106.288 80.7045 100.273 80.6136 93H102.159C102.341 96 103.144 98.5 104.568 100.5C105.992 102.5 107.947 104.015 110.432 105.045C112.947 106.076 115.856 106.591 119.159 106.591C122.189 106.591 124.765 106.182 126.886 105.364C129.038 104.545 130.689 103.409 131.841 101.955C132.992 100.5 133.583 98.8333 133.614 96.9545C133.583 95.197 133.038 93.697 131.977 92.4545C130.917 91.1818 129.28 90.0909 127.068 89.1818C124.886 88.2424 122.098 87.3788 118.705 86.5909L108.977 84.3182C100.917 82.4697 94.5682 79.4848 89.9318 75.3636C85.2955 71.2121 82.9924 65.6061 83.0227 58.5455C82.9924 52.7879 84.5379 47.7424 87.6591 43.4091C90.7803 39.0758 95.0985 35.697 100.614 33.2727C106.129 30.8485 112.417 29.6364 119.477 29.6364C126.689 29.6364 132.947 30.8636 138.25 33.3182C143.583 35.7424 147.72 39.1515 150.659 43.5455C153.598 47.9394 155.098 53.0303 155.159 58.8182H133.614ZM203.023 125.273C195.932 125.273 189.644 124.061 184.159 121.636C178.705 119.182 174.402 115.803 171.25 111.5C168.098 107.197 166.492 102.242 166.432 96.6364H189.068C189.159 98.6667 189.811 100.47 191.023 102.045C192.235 103.591 193.886 104.803 195.977 105.682C198.068 106.561 200.447 107 203.114 107C205.78 107 208.129 106.53 210.159 105.591C212.22 104.621 213.826 103.303 214.977 101.636C216.129 99.9394 216.689 98 216.659 95.8182C216.689 93.6364 216.068 91.697 214.795 90C213.523 88.303 211.72 86.9848 209.386 86.0455C207.083 85.1061 204.356 84.6364 201.205 84.6364H192.159V68.6364H201.205C203.962 68.6364 206.386 68.1818 208.477 67.2727C210.598 66.3636 212.25 65.0909 213.432 63.4545C214.614 61.7879 215.189 59.8788 215.159 57.7273C215.189 55.6364 214.689 53.803 213.659 52.2273C212.659 50.6212 211.25 49.3788 209.432 48.5C207.644 47.6212 205.568 47.1818 203.205 47.1818C200.72 47.1818 198.462 47.6212 196.432 48.5C194.432 49.3788 192.841 50.6212 191.659 52.2273C190.477 53.8333 189.856 55.697 189.795 57.8182H168.295C168.356 52.2727 169.902 47.3939 172.932 43.1818C175.962 38.9394 180.083 35.6212 185.295 33.2273C190.538 30.8333 196.508 29.6364 203.205 29.6364C209.871 29.6364 215.735 30.803 220.795 33.1364C225.856 35.4697 229.795 38.6515 232.614 42.6818C235.432 46.6818 236.841 51.2121 236.841 56.2727C236.871 61.5151 235.159 65.8333 231.705 69.2273C228.28 72.6212 223.871 74.7121 218.477 75.5V76.2273C225.689 77.0758 231.129 79.4091 234.795 83.2273C238.492 87.0455 240.326 91.8182 240.295 97.5455C240.295 102.939 238.705 107.727 235.523 111.909C232.371 116.061 227.977 119.333 222.341 121.727C216.735 124.091 210.295 125.273 203.023 125.273Z" fill="url(#paint0_linear_22_2)"/>
</g>
<defs>
<linearGradient id="paint0_linear_22_2" x1="123.5" y1="155" x2="123.5" y2="0" gradientUnits="userSpaceOnUse">
<stop stop-color="#18181B"/>
<stop offset="1" stop-color="#71717A"/>
</linearGradient>
<clipPath id="clip0_22_2">
<rect width="247" height="155" fill="white"/>
</clipPath>
</defs>
</svg>
